<mxfile host="drawio-plugin" modified="2023-05-14T09:31:02.833Z" agent="5.0 (Windows NT 6.2; Win64; x64) AppleWebKit/537.36 (KHTML, like Gecko) Chrome/104.0.5112.102 Safari/537.36" etag="EZj8QeNVED3-ZvsNcrS0" version="20.5.3" type="embed"><diagram id="C5RBs43oDa-KdzZeNtuy" name="Page-1"><mxGraphModel dx="2824" dy="2623" grid="1" gridSize="10" guides="1" tooltips="1" connect="1" arrows="1" fold="1" page="1" pageScale="1" pageWidth="827" pageHeight="1169" math="0" shadow="0"><root><mxCell id="WIyWlLk6GJQsqaUBKTNV-0"/><mxCell id="WIyWlLk6GJQsqaUBKTNV-1" parent="WIyWlLk6GJQsqaUBKTNV-0"/><mxCell id="HzYEAX8HfGSruy279Z3v-16" value="Dispositivo" style="swimlane;fontStyle=0;align=center;verticalAlign=top;childLayout=stackLayout;horizontal=1;startSize=26;horizontalStack=0;resizeParent=1;resizeLast=0;collapsible=1;marginBottom=0;rounded=0;shadow=0;strokeWidth=1;" parent="WIyWlLk6GJQsqaUBKTNV-1" vertex="1"><mxGeometry x="750" y="-730" width="200" height="214" as="geometry"><mxRectangle x="130" y="380" width="160" height="26" as="alternateBounds"/></mxGeometry></mxCell><mxCell id="PSQ5HOjnmQE-tcymUydH-123" value="id_dispositivo: INT&#10;" style="text;align=left;verticalAlign=top;spacingLeft=4;spacingRight=4;overflow=hidden;rotatable=0;points=[[0,0.5],[1,0.5]];portConstraint=eastwest;" parent="HzYEAX8HfGSruy279Z3v-16" vertex="1"><mxGeometry y="26" width="200" height="26" as="geometry"/></mxCell><mxCell id="HzYEAX8HfGSruy279Z3v-17" value="id_posicion: ARRAY INT&#10;" style="text;align=left;verticalAlign=top;spacingLeft=4;spacingRight=4;overflow=hidden;rotatable=0;points=[[0,0.5],[1,0.5]];portConstraint=eastwest;" parent="HzYEAX8HfGSruy279Z3v-16" vertex="1"><mxGeometry y="52" width="200" height="26" as="geometry"/></mxCell><mxCell id="HzYEAX8HfGSruy279Z3v-70" value="marca: VARCHAR" style="text;align=left;verticalAlign=top;spacingLeft=4;spacingRight=4;overflow=hidden;rotatable=0;points=[[0,0.5],[1,0.5]];portConstraint=eastwest;" parent="HzYEAX8HfGSruy279Z3v-16" vertex="1"><mxGeometry y="78" width="200" height="26" as="geometry"/></mxCell><mxCell id="HzYEAX8HfGSruy279Z3v-71" value="modelo: VARCHAR" style="text;align=left;verticalAlign=top;spacingLeft=4;spacingRight=4;overflow=hidden;rotatable=0;points=[[0,0.5],[1,0.5]];portConstraint=eastwest;" parent="HzYEAX8HfGSruy279Z3v-16" vertex="1"><mxGeometry y="104" width="200" height="26" as="geometry"/></mxCell><mxCell id="HzYEAX8HfGSruy279Z3v-106" value="estado: VARCHAR" style="text;align=left;verticalAlign=top;spacingLeft=4;spacingRight=4;overflow=hidden;rotatable=0;points=[[0,0.5],[1,0.5]];portConstraint=eastwest;" parent="HzYEAX8HfGSruy279Z3v-16" vertex="1"><mxGeometry y="130" width="200" height="26" as="geometry"/></mxCell><mxCell id="HzYEAX8HfGSruy279Z3v-114" value="fecha_instalacion: DATETIME" style="text;align=left;verticalAlign=top;spacingLeft=4;spacingRight=4;overflow=hidden;rotatable=0;points=[[0,0.5],[1,0.5]];portConstraint=eastwest;" parent="HzYEAX8HfGSruy279Z3v-16" vertex="1"><mxGeometry y="156" width="200" height="26" as="geometry"/></mxCell><mxCell id="HzYEAX8HfGSruy279Z3v-19" value="" style="line;html=1;strokeWidth=1;align=left;verticalAlign=middle;spacingTop=-1;spacingLeft=3;spacingRight=3;rotatable=0;labelPosition=right;points=[];portConstraint=eastwest;" parent="HzYEAX8HfGSruy279Z3v-16" vertex="1"><mxGeometry y="182" width="200" height="2" as="geometry"/></mxCell><mxCell id="HzYEAX8HfGSruy279Z3v-20" value="metodo" style="text;align=left;verticalAlign=top;spacingLeft=4;spacingRight=4;overflow=hidden;rotatable=0;points=[[0,0.5],[1,0.5]];portConstraint=eastwest;" parent="HzYEAX8HfGSruy279Z3v-16" vertex="1"><mxGeometry y="184" width="200" height="26" as="geometry"/></mxCell><mxCell id="HzYEAX8HfGSruy279Z3v-21" value="Vehículo" style="swimlane;fontStyle=0;align=center;verticalAlign=top;childLayout=stackLayout;horizontal=1;startSize=26;horizontalStack=0;resizeParent=1;resizeLast=0;collapsible=1;marginBottom=0;rounded=0;shadow=0;strokeWidth=1;" parent="WIyWlLk6GJQsqaUBKTNV-1" vertex="1"><mxGeometry x="420" y="-470" width="200" height="380" as="geometry"><mxRectangle x="130" y="380" width="160" height="26" as="alternateBounds"/></mxGeometry></mxCell><mxCell id="HzYEAX8HfGSruy279Z3v-22" value="id_vehiculo: INT" style="text;align=left;verticalAlign=top;spacingLeft=4;spacingRight=4;overflow=hidden;rotatable=0;points=[[0,0.5],[1,0.5]];portConstraint=eastwest;" parent="HzYEAX8HfGSruy279Z3v-21" vertex="1"><mxGeometry y="26" width="200" height="26" as="geometry"/></mxCell><mxCell id="xrnd4R6Ddu3Z8AAsykW7-14" value="id_dispositivo: INT" style="text;align=left;verticalAlign=top;spacingLeft=4;spacingRight=4;overflow=hidden;rotatable=0;points=[[0,0.5],[1,0.5]];portConstraint=eastwest;" parent="HzYEAX8HfGSruy279Z3v-21" vertex="1"><mxGeometry y="52" width="200" height="26" as="geometry"/></mxCell><mxCell id="PSQ5HOjnmQE-tcymUydH-5" value="conductores: ARRAY INT" style="text;align=left;verticalAlign=top;spacingLeft=4;spacingRight=4;overflow=hidden;rotatable=0;points=[[0,0.5],[1,0.5]];portConstraint=eastwest;" parent="HzYEAX8HfGSruy279Z3v-21" vertex="1"><mxGeometry y="78" width="200" height="26" as="geometry"/></mxCell><mxCell id="PSQ5HOjnmQE-tcymUydH-27" value="mantenimiento: ARRAY INT" style="text;align=left;verticalAlign=top;spacingLeft=4;spacingRight=4;overflow=hidden;rotatable=0;points=[[0,0.5],[1,0.5]];portConstraint=eastwest;" parent="HzYEAX8HfGSruy279Z3v-21" vertex="1"><mxGeometry y="104" width="200" height="26" as="geometry"/></mxCell><mxCell id="HzYEAX8HfGSruy279Z3v-111" value="tipo_vehiculo: VARCHAR(11)" style="text;align=left;verticalAlign=top;spacingLeft=4;spacingRight=4;overflow=hidden;rotatable=0;points=[[0,0.5],[1,0.5]];portConstraint=eastwest;" parent="HzYEAX8HfGSruy279Z3v-21" vertex="1"><mxGeometry y="130" width="200" height="26" as="geometry"/></mxCell><mxCell id="HzYEAX8HfGSruy279Z3v-23" value="marca: VARCHAR(11)" style="text;align=left;verticalAlign=top;spacingLeft=4;spacingRight=4;overflow=hidden;rotatable=0;points=[[0,0.5],[1,0.5]];portConstraint=eastwest;" parent="HzYEAX8HfGSruy279Z3v-21" vertex="1"><mxGeometry y="156" width="200" height="26" as="geometry"/></mxCell><mxCell id="HzYEAX8HfGSruy279Z3v-53" value="modelo: VARCHAR(11)" style="text;align=left;verticalAlign=top;spacingLeft=4;spacingRight=4;overflow=hidden;rotatable=0;points=[[0,0.5],[1,0.5]];portConstraint=eastwest;" parent="HzYEAX8HfGSruy279Z3v-21" vertex="1"><mxGeometry y="182" width="200" height="26" as="geometry"/></mxCell><mxCell id="HzYEAX8HfGSruy279Z3v-54" value="chasis: VARCHAR(20)" style="text;align=left;verticalAlign=top;spacingLeft=4;spacingRight=4;overflow=hidden;rotatable=0;points=[[0,0.5],[1,0.5]];portConstraint=eastwest;" parent="HzYEAX8HfGSruy279Z3v-21" vertex="1"><mxGeometry y="208" width="200" height="26" as="geometry"/></mxCell><mxCell id="HzYEAX8HfGSruy279Z3v-55" value="matricula: VARCHAR(10)" style="text;align=left;verticalAlign=top;spacingLeft=4;spacingRight=4;overflow=hidden;rotatable=0;points=[[0,0.5],[1,0.5]];portConstraint=eastwest;" parent="HzYEAX8HfGSruy279Z3v-21" vertex="1"><mxGeometry y="234" width="200" height="26" as="geometry"/></mxCell><mxCell id="xrnd4R6Ddu3Z8AAsykW7-12" value="fecha_alta: DATETIME" style="text;align=left;verticalAlign=top;spacingLeft=4;spacingRight=4;overflow=hidden;rotatable=0;points=[[0,0.5],[1,0.5]];portConstraint=eastwest;" parent="HzYEAX8HfGSruy279Z3v-21" vertex="1"><mxGeometry y="260" width="200" height="26" as="geometry"/></mxCell><mxCell id="xrnd4R6Ddu3Z8AAsykW7-13" value="km_iniciales: DATETIME" style="text;align=left;verticalAlign=top;spacingLeft=4;spacingRight=4;overflow=hidden;rotatable=0;points=[[0,0.5],[1,0.5]];portConstraint=eastwest;" parent="HzYEAX8HfGSruy279Z3v-21" vertex="1"><mxGeometry y="286" width="200" height="26" as="geometry"/></mxCell><mxCell id="HzYEAX8HfGSruy279Z3v-72" value="km_actuales: DATETIME" style="text;align=left;verticalAlign=top;spacingLeft=4;spacingRight=4;overflow=hidden;rotatable=0;points=[[0,0.5],[1,0.5]];portConstraint=eastwest;" parent="HzYEAX8HfGSruy279Z3v-21" vertex="1"><mxGeometry y="312" width="200" height="26" as="geometry"/></mxCell><mxCell id="5" value="estado: BOOLEAN" style="text;align=left;verticalAlign=top;spacingLeft=4;spacingRight=4;overflow=hidden;rotatable=0;points=[[0,0.5],[1,0.5]];portConstraint=eastwest;" parent="HzYEAX8HfGSruy279Z3v-21" vertex="1"><mxGeometry y="338" width="200" height="26" as="geometry"/></mxCell><mxCell id="HzYEAX8HfGSruy279Z3v-24" value="" style="line;html=1;strokeWidth=1;align=left;verticalAlign=middle;spacingTop=-1;spacingLeft=3;spacingRight=3;rotatable=0;labelPosition=right;points=[];portConstraint=eastwest;" parent="HzYEAX8HfGSruy279Z3v-21" vertex="1"><mxGeometry y="364" width="200" height="2" as="geometry"/></mxCell><mxCell id="HzYEAX8HfGSruy279Z3v-26" value="Conductor" style="swimlane;fontStyle=0;align=center;verticalAlign=top;childLayout=stackLayout;horizontal=1;startSize=26;horizontalStack=0;resizeParent=1;resizeLast=0;collapsible=1;marginBottom=0;rounded=0;shadow=0;strokeWidth=1;" parent="WIyWlLk6GJQsqaUBKTNV-1" vertex="1"><mxGeometry x="750" y="-380" width="240" height="210" as="geometry"><mxRectangle x="130" y="380" width="160" height="26" as="alternateBounds"/></mxGeometry></mxCell><mxCell id="HzYEAX8HfGSruy279Z3v-27" value="id_conductor: INT" style="text;align=left;verticalAlign=top;spacingLeft=4;spacingRight=4;overflow=hidden;rotatable=0;points=[[0,0.5],[1,0.5]];portConstraint=eastwest;" parent="HzYEAX8HfGSruy279Z3v-26" vertex="1"><mxGeometry y="26" width="240" height="26" as="geometry"/></mxCell><mxCell id="HzYEAX8HfGSruy279Z3v-28" value="nombre_conductor: VARCHAR(20)" style="text;align=left;verticalAlign=top;spacingLeft=4;spacingRight=4;overflow=hidden;rotatable=0;points=[[0,0.5],[1,0.5]];portConstraint=eastwest;" parent="HzYEAX8HfGSruy279Z3v-26" vertex="1"><mxGeometry y="52" width="240" height="26" as="geometry"/></mxCell><mxCell id="HzYEAX8HfGSruy279Z3v-79" value="dni: VARCHAR(11)" style="text;align=left;verticalAlign=top;spacingLeft=4;spacingRight=4;overflow=hidden;rotatable=0;points=[[0,0.5],[1,0.5]];portConstraint=eastwest;" parent="HzYEAX8HfGSruy279Z3v-26" vertex="1"><mxGeometry y="78" width="240" height="26" as="geometry"/></mxCell><mxCell id="HzYEAX8HfGSruy279Z3v-122" value="fecha_alta: DATETIME" style="text;align=left;verticalAlign=top;spacingLeft=4;spacingRight=4;overflow=hidden;rotatable=0;points=[[0,0.5],[1,0.5]];portConstraint=eastwest;" parent="HzYEAX8HfGSruy279Z3v-26" vertex="1"><mxGeometry y="104" width="240" height="26" as="geometry"/></mxCell><mxCell id="HzYEAX8HfGSruy279Z3v-80" value="fecha_permiso_circulacion: DATE" style="text;align=left;verticalAlign=top;spacingLeft=4;spacingRight=4;overflow=hidden;rotatable=0;points=[[0,0.5],[1,0.5]];portConstraint=eastwest;" parent="HzYEAX8HfGSruy279Z3v-26" vertex="1"><mxGeometry y="130" width="240" height="26" as="geometry"/></mxCell><mxCell id="HzYEAX8HfGSruy279Z3v-123" value="estado: BOOLEAN" style="text;align=left;verticalAlign=top;spacingLeft=4;spacingRight=4;overflow=hidden;rotatable=0;points=[[0,0.5],[1,0.5]];portConstraint=eastwest;" parent="HzYEAX8HfGSruy279Z3v-26" vertex="1"><mxGeometry y="156" width="240" height="26" as="geometry"/></mxCell><mxCell id="HzYEAX8HfGSruy279Z3v-29" value="" style="line;html=1;strokeWidth=1;align=left;verticalAlign=middle;spacingTop=-1;spacingLeft=3;spacingRight=3;rotatable=0;labelPosition=right;points=[];portConstraint=eastwest;" parent="HzYEAX8HfGSruy279Z3v-26" vertex="1"><mxGeometry y="182" width="240" height="2" as="geometry"/></mxCell><mxCell id="HzYEAX8HfGSruy279Z3v-30" value="metodo" style="text;align=left;verticalAlign=top;spacingLeft=4;spacingRight=4;overflow=hidden;rotatable=0;points=[[0,0.5],[1,0.5]];portConstraint=eastwest;" parent="HzYEAX8HfGSruy279Z3v-26" vertex="1"><mxGeometry y="184" width="240" height="26" as="geometry"/></mxCell><mxCell id="PSQ5HOjnmQE-tcymUydH-7" value="Mantenimiento" style="swimlane;fontStyle=0;align=center;verticalAlign=top;childLayout=stackLayout;horizontal=1;startSize=26;horizontalStack=0;resizeParent=1;resizeLast=0;collapsible=1;marginBottom=0;rounded=0;shadow=0;strokeWidth=1;" parent="WIyWlLk6GJQsqaUBKTNV-1" vertex="1"><mxGeometry x="750" y="-130" width="240" height="220" as="geometry"><mxRectangle x="130" y="380" width="160" height="26" as="alternateBounds"/></mxGeometry></mxCell><mxCell id="PSQ5HOjnmQE-tcymUydH-43" value="id_mantenimiento: INT" style="text;align=left;verticalAlign=top;spacingLeft=4;spacingRight=4;overflow=hidden;rotatable=0;points=[[0,0.5],[1,0.5]];portConstraint=eastwest;" parent="PSQ5HOjnmQE-tcymUydH-7" vertex="1"><mxGeometry y="26" width="240" height="26" as="geometry"/></mxCell><mxCell id="PSQ5HOjnmQE-tcymUydH-8" value="id_cambioAceite: ARRAY INT" style="text;align=left;verticalAlign=top;spacingLeft=4;spacingRight=4;overflow=hidden;rotatable=0;points=[[0,0.5],[1,0.5]];portConstraint=eastwest;" parent="PSQ5HOjnmQE-tcymUydH-7" vertex="1"><mxGeometry y="52" width="240" height="26" as="geometry"/></mxCell><mxCell id="PSQ5HOjnmQE-tcymUydH-82" value="id_cambioFiltroCombustible: ARRAY INT" style="text;align=left;verticalAlign=top;spacingLeft=4;spacingRight=4;overflow=hidden;rotatable=0;points=[[0,0.5],[1,0.5]];portConstraint=eastwest;" parent="PSQ5HOjnmQE-tcymUydH-7" vertex="1"><mxGeometry y="78" width="240" height="26" as="geometry"/></mxCell><mxCell id="PSQ5HOjnmQE-tcymUydH-83" value="id_cambioFiltroAire:ARRAY INT" style="text;align=left;verticalAlign=top;spacingLeft=4;spacingRight=4;overflow=hidden;rotatable=0;points=[[0,0.5],[1,0.5]];portConstraint=eastwest;" parent="PSQ5HOjnmQE-tcymUydH-7" vertex="1"><mxGeometry y="104" width="240" height="26" as="geometry"/></mxCell><mxCell id="PSQ5HOjnmQE-tcymUydH-84" value="id_cambioAceite:ARRAY INT" style="text;align=left;verticalAlign=top;spacingLeft=4;spacingRight=4;overflow=hidden;rotatable=0;points=[[0,0.5],[1,0.5]];portConstraint=eastwest;" parent="PSQ5HOjnmQE-tcymUydH-7" vertex="1"><mxGeometry y="130" width="240" height="26" as="geometry"/></mxCell><mxCell id="PSQ5HOjnmQE-tcymUydH-85" value="id_cambioDistribucion:ARRAY INT" style="text;align=left;verticalAlign=top;spacingLeft=4;spacingRight=4;overflow=hidden;rotatable=0;points=[[0,0.5],[1,0.5]];portConstraint=eastwest;" parent="PSQ5HOjnmQE-tcymUydH-7" vertex="1"><mxGeometry y="156" width="240" height="26" as="geometry"/></mxCell><mxCell id="PSQ5HOjnmQE-tcymUydH-9" value="" style="line;html=1;strokeWidth=1;align=left;verticalAlign=middle;spacingTop=-1;spacingLeft=3;spacingRight=3;rotatable=0;labelPosition=right;points=[];portConstraint=eastwest;" parent="PSQ5HOjnmQE-tcymUydH-7" vertex="1"><mxGeometry y="182" width="240" height="2" as="geometry"/></mxCell><mxCell id="PSQ5HOjnmQE-tcymUydH-28" value="CambioAceite" style="swimlane;fontStyle=0;align=center;verticalAlign=top;childLayout=stackLayout;horizontal=1;startSize=26;horizontalStack=0;resizeParent=1;resizeLast=0;collapsible=1;marginBottom=0;rounded=0;shadow=0;strokeWidth=1;" parent="WIyWlLk6GJQsqaUBKTNV-1" vertex="1"><mxGeometry x="270" y="210" width="200" height="140" as="geometry"><mxRectangle x="130" y="380" width="160" height="26" as="alternateBounds"/></mxGeometry></mxCell><mxCell id="PSQ5HOjnmQE-tcymUydH-29" value="id_cambioAceite: INT" style="text;align=left;verticalAlign=top;spacingLeft=4;spacingRight=4;overflow=hidden;rotatable=0;points=[[0,0.5],[1,0.5]];portConstraint=eastwest;" parent="PSQ5HOjnmQE-tcymUydH-28" vertex="1"><mxGeometry y="26" width="200" height="26" as="geometry"/></mxCell><mxCell id="PSQ5HOjnmQE-tcymUydH-86" value="kilometros: INT" style="text;align=left;verticalAlign=top;spacingLeft=4;spacingRight=4;overflow=hidden;rotatable=0;points=[[0,0.5],[1,0.5]];portConstraint=eastwest;" parent="PSQ5HOjnmQE-tcymUydH-28" vertex="1"><mxGeometry y="52" width="200" height="26" as="geometry"/></mxCell><mxCell id="PSQ5HOjnmQE-tcymUydH-87" value="decha: Date" style="text;align=left;verticalAlign=top;spacingLeft=4;spacingRight=4;overflow=hidden;rotatable=0;points=[[0,0.5],[1,0.5]];portConstraint=eastwest;" parent="PSQ5HOjnmQE-tcymUydH-28" vertex="1"><mxGeometry y="78" width="200" height="26" as="geometry"/></mxCell><mxCell id="PSQ5HOjnmQE-tcymUydH-41" value="" style="line;html=1;strokeWidth=1;align=left;verticalAlign=middle;spacingTop=-1;spacingLeft=3;spacingRight=3;rotatable=0;labelPosition=right;points=[];portConstraint=eastwest;" parent="PSQ5HOjnmQE-tcymUydH-28" vertex="1"><mxGeometry y="104" width="200" height="2" as="geometry"/></mxCell><mxCell id="PSQ5HOjnmQE-tcymUydH-89" value="CambioFiltroPolen" style="swimlane;fontStyle=0;align=center;verticalAlign=top;childLayout=stackLayout;horizontal=1;startSize=26;horizontalStack=0;resizeParent=1;resizeLast=0;collapsible=1;marginBottom=0;rounded=0;shadow=0;strokeWidth=1;" parent="WIyWlLk6GJQsqaUBKTNV-1" vertex="1"><mxGeometry x="1030" y="210" width="200" height="140" as="geometry"><mxRectangle x="130" y="380" width="160" height="26" as="alternateBounds"/></mxGeometry></mxCell><mxCell id="PSQ5HOjnmQE-tcymUydH-90" value="id_cambioFiltroCombustible: INT" style="text;align=left;verticalAlign=top;spacingLeft=4;spacingRight=4;overflow=hidden;rotatable=0;points=[[0,0.5],[1,0.5]];portConstraint=eastwest;" parent="PSQ5HOjnmQE-tcymUydH-89" vertex="1"><mxGeometry y="26" width="200" height="26" as="geometry"/></mxCell><mxCell id="PSQ5HOjnmQE-tcymUydH-91" value="kilometros: INT" style="text;align=left;verticalAlign=top;spacingLeft=4;spacingRight=4;overflow=hidden;rotatable=0;points=[[0,0.5],[1,0.5]];portConstraint=eastwest;" parent="PSQ5HOjnmQE-tcymUydH-89" vertex="1"><mxGeometry y="52" width="200" height="26" as="geometry"/></mxCell><mxCell id="PSQ5HOjnmQE-tcymUydH-92" value="fecha: Date" style="text;align=left;verticalAlign=top;spacingLeft=4;spacingRight=4;overflow=hidden;rotatable=0;points=[[0,0.5],[1,0.5]];portConstraint=eastwest;" parent="PSQ5HOjnmQE-tcymUydH-89" vertex="1"><mxGeometry y="78" width="200" height="26" as="geometry"/></mxCell><mxCell id="PSQ5HOjnmQE-tcymUydH-93" value="" style="line;html=1;strokeWidth=1;align=left;verticalAlign=middle;spacingTop=-1;spacingLeft=3;spacingRight=3;rotatable=0;labelPosition=right;points=[];portConstraint=eastwest;" parent="PSQ5HOjnmQE-tcymUydH-89" vertex="1"><mxGeometry y="104" width="200" height="2" as="geometry"/></mxCell><mxCell id="PSQ5HOjnmQE-tcymUydH-94" value="CambioFiltroAire" style="swimlane;fontStyle=0;align=center;verticalAlign=top;childLayout=stackLayout;horizontal=1;startSize=26;horizontalStack=0;resizeParent=1;resizeLast=0;collapsible=1;marginBottom=0;rounded=0;shadow=0;strokeWidth=1;" parent="WIyWlLk6GJQsqaUBKTNV-1" vertex="1"><mxGeometry x="510" y="210" width="200" height="140" as="geometry"><mxRectangle x="130" y="380" width="160" height="26" as="alternateBounds"/></mxGeometry></mxCell><mxCell id="PSQ5HOjnmQE-tcymUydH-95" value="id_cambioFiltroAire: INT" style="text;align=left;verticalAlign=top;spacingLeft=4;spacingRight=4;overflow=hidden;rotatable=0;points=[[0,0.5],[1,0.5]];portConstraint=eastwest;" parent="PSQ5HOjnmQE-tcymUydH-94" vertex="1"><mxGeometry y="26" width="200" height="26" as="geometry"/></mxCell><mxCell id="PSQ5HOjnmQE-tcymUydH-96" value="kilometros: INT" style="text;align=left;verticalAlign=top;spacingLeft=4;spacingRight=4;overflow=hidden;rotatable=0;points=[[0,0.5],[1,0.5]];portConstraint=eastwest;" parent="PSQ5HOjnmQE-tcymUydH-94" vertex="1"><mxGeometry y="52" width="200" height="26" as="geometry"/></mxCell><mxCell id="PSQ5HOjnmQE-tcymUydH-97" value="fecha: Date" style="text;align=left;verticalAlign=top;spacingLeft=4;spacingRight=4;overflow=hidden;rotatable=0;points=[[0,0.5],[1,0.5]];portConstraint=eastwest;" parent="PSQ5HOjnmQE-tcymUydH-94" vertex="1"><mxGeometry y="78" width="200" height="26" as="geometry"/></mxCell><mxCell id="PSQ5HOjnmQE-tcymUydH-98" value="" style="line;html=1;strokeWidth=1;align=left;verticalAlign=middle;spacingTop=-1;spacingLeft=3;spacingRight=3;rotatable=0;labelPosition=right;points=[];portConstraint=eastwest;" parent="PSQ5HOjnmQE-tcymUydH-94" vertex="1"><mxGeometry y="104" width="200" height="2" as="geometry"/></mxCell><mxCell id="PSQ5HOjnmQE-tcymUydH-99" value="CambioFiltroCombustible" style="swimlane;fontStyle=0;align=center;verticalAlign=top;childLayout=stackLayout;horizontal=1;startSize=26;horizontalStack=0;resizeParent=1;resizeLast=0;collapsible=1;marginBottom=0;rounded=0;shadow=0;strokeWidth=1;" parent="WIyWlLk6GJQsqaUBKTNV-1" vertex="1"><mxGeometry x="750" y="210" width="240" height="140" as="geometry"><mxRectangle x="130" y="380" width="160" height="26" as="alternateBounds"/></mxGeometry></mxCell><mxCell id="PSQ5HOjnmQE-tcymUydH-100" value="id_cambioFiltroCombustible: INT" style="text;align=left;verticalAlign=top;spacingLeft=4;spacingRight=4;overflow=hidden;rotatable=0;points=[[0,0.5],[1,0.5]];portConstraint=eastwest;" parent="PSQ5HOjnmQE-tcymUydH-99" vertex="1"><mxGeometry y="26" width="240" height="26" as="geometry"/></mxCell><mxCell id="PSQ5HOjnmQE-tcymUydH-101" value="kilometros: INT" style="text;align=left;verticalAlign=top;spacingLeft=4;spacingRight=4;overflow=hidden;rotatable=0;points=[[0,0.5],[1,0.5]];portConstraint=eastwest;" parent="PSQ5HOjnmQE-tcymUydH-99" vertex="1"><mxGeometry y="52" width="240" height="26" as="geometry"/></mxCell><mxCell id="PSQ5HOjnmQE-tcymUydH-102" value="fecha: Date" style="text;align=left;verticalAlign=top;spacingLeft=4;spacingRight=4;overflow=hidden;rotatable=0;points=[[0,0.5],[1,0.5]];portConstraint=eastwest;" parent="PSQ5HOjnmQE-tcymUydH-99" vertex="1"><mxGeometry y="78" width="240" height="26" as="geometry"/></mxCell><mxCell id="PSQ5HOjnmQE-tcymUydH-103" value="" style="line;html=1;strokeWidth=1;align=left;verticalAlign=middle;spacingTop=-1;spacingLeft=3;spacingRight=3;rotatable=0;labelPosition=right;points=[];portConstraint=eastwest;" parent="PSQ5HOjnmQE-tcymUydH-99" vertex="1"><mxGeometry y="104" width="240" height="2" as="geometry"/></mxCell><mxCell id="PSQ5HOjnmQE-tcymUydH-104" value="CambioDistribucion" style="swimlane;fontStyle=0;align=center;verticalAlign=top;childLayout=stackLayout;horizontal=1;startSize=26;horizontalStack=0;resizeParent=1;resizeLast=0;collapsible=1;marginBottom=0;rounded=0;shadow=0;strokeWidth=1;" parent="WIyWlLk6GJQsqaUBKTNV-1" vertex="1"><mxGeometry x="1270" y="210" width="200" height="140" as="geometry"><mxRectangle x="130" y="380" width="160" height="26" as="alternateBounds"/></mxGeometry></mxCell><mxCell id="PSQ5HOjnmQE-tcymUydH-105" value="id_cambioDistribucion: INT" style="text;align=left;verticalAlign=top;spacingLeft=4;spacingRight=4;overflow=hidden;rotatable=0;points=[[0,0.5],[1,0.5]];portConstraint=eastwest;" parent="PSQ5HOjnmQE-tcymUydH-104" vertex="1"><mxGeometry y="26" width="200" height="26" as="geometry"/></mxCell><mxCell id="PSQ5HOjnmQE-tcymUydH-106" value="kilometros: INT" style="text;align=left;verticalAlign=top;spacingLeft=4;spacingRight=4;overflow=hidden;rotatable=0;points=[[0,0.5],[1,0.5]];portConstraint=eastwest;" parent="PSQ5HOjnmQE-tcymUydH-104" vertex="1"><mxGeometry y="52" width="200" height="26" as="geometry"/></mxCell><mxCell id="PSQ5HOjnmQE-tcymUydH-107" value="fecha: Date" style="text;align=left;verticalAlign=top;spacingLeft=4;spacingRight=4;overflow=hidden;rotatable=0;points=[[0,0.5],[1,0.5]];portConstraint=eastwest;" parent="PSQ5HOjnmQE-tcymUydH-104" vertex="1"><mxGeometry y="78" width="200" height="26" as="geometry"/></mxCell><mxCell id="PSQ5HOjnmQE-tcymUydH-108" value="" style="line;html=1;strokeWidth=1;align=left;verticalAlign=middle;spacingTop=-1;spacingLeft=3;spacingRight=3;rotatable=0;labelPosition=right;points=[];portConstraint=eastwest;" parent="PSQ5HOjnmQE-tcymUydH-104" vertex="1"><mxGeometry y="104" width="200" height="2" as="geometry"/></mxCell><mxCell id="PSQ5HOjnmQE-tcymUydH-109" value="Posicion" style="swimlane;fontStyle=0;align=center;verticalAlign=top;childLayout=stackLayout;horizontal=1;startSize=26;horizontalStack=0;resizeParent=1;resizeLast=0;collapsible=1;marginBottom=0;rounded=0;shadow=0;strokeWidth=1;" parent="WIyWlLk6GJQsqaUBKTNV-1" vertex="1"><mxGeometry x="1030" y="-717" width="160" height="174" as="geometry"><mxRectangle x="130" y="380" width="160" height="26" as="alternateBounds"/></mxGeometry></mxCell><mxCell id="PSQ5HOjnmQE-tcymUydH-110" value="id_posicion: int&#10;" style="text;align=left;verticalAlign=top;spacingLeft=4;spacingRight=4;overflow=hidden;rotatable=0;points=[[0,0.5],[1,0.5]];portConstraint=eastwest;" parent="PSQ5HOjnmQE-tcymUydH-109" vertex="1"><mxGeometry y="26" width="160" height="26" as="geometry"/></mxCell><mxCell id="PSQ5HOjnmQE-tcymUydH-114" value="longitud" style="text;align=left;verticalAlign=top;spacingLeft=4;spacingRight=4;overflow=hidden;rotatable=0;points=[[0,0.5],[1,0.5]];portConstraint=eastwest;" parent="PSQ5HOjnmQE-tcymUydH-109" vertex="1"><mxGeometry y="52" width="160" height="26" as="geometry"/></mxCell><mxCell id="PSQ5HOjnmQE-tcymUydH-115" value="latitud" style="text;align=left;verticalAlign=top;spacingLeft=4;spacingRight=4;overflow=hidden;rotatable=0;points=[[0,0.5],[1,0.5]];portConstraint=eastwest;" parent="PSQ5HOjnmQE-tcymUydH-109" vertex="1"><mxGeometry y="78" width="160" height="26" as="geometry"/></mxCell><mxCell id="PSQ5HOjnmQE-tcymUydH-117" value="velocidad" style="text;align=left;verticalAlign=top;spacingLeft=4;spacingRight=4;overflow=hidden;rotatable=0;points=[[0,0.5],[1,0.5]];portConstraint=eastwest;" parent="PSQ5HOjnmQE-tcymUydH-109" vertex="1"><mxGeometry y="104" width="160" height="26" as="geometry"/></mxCell><mxCell id="PSQ5HOjnmQE-tcymUydH-125" value="fecha: DATETIME" style="text;align=left;verticalAlign=top;spacingLeft=4;spacingRight=4;overflow=hidden;rotatable=0;points=[[0,0.5],[1,0.5]];portConstraint=eastwest;" parent="PSQ5HOjnmQE-tcymUydH-109" vertex="1"><mxGeometry y="130" width="160" height="26" as="geometry"/></mxCell><mxCell id="PSQ5HOjnmQE-tcymUydH-120" value="" style="line;html=1;strokeWidth=1;align=left;verticalAlign=middle;spacingTop=-1;spacingLeft=3;spacingRight=3;rotatable=0;labelPosition=right;points=[];portConstraint=eastwest;" parent="PSQ5HOjnmQE-tcymUydH-109" vertex="1"><mxGeometry y="156" width="160" height="2" as="geometry"/></mxCell><mxCell id="PSQ5HOjnmQE-tcymUydH-126" value="" style="endArrow=classic;html=1;rounded=0;entryX=0;entryY=0.5;entryDx=0;entryDy=0;exitX=1;exitY=0.5;exitDx=0;exitDy=0;" parent="WIyWlLk6GJQsqaUBKTNV-1" source="HzYEAX8HfGSruy279Z3v-53" target="HzYEAX8HfGSruy279Z3v-71" edge="1"><mxGeometry width="50" height="50" relative="1" as="geometry"><mxPoint x="670" y="-290" as="sourcePoint"/><mxPoint x="791.28" y="-627.604" as="targetPoint"/></mxGeometry></mxCell><mxCell id="1" value="Text" style="edgeLabel;html=1;align=center;verticalAlign=middle;resizable=0;points=[];" parent="PSQ5HOjnmQE-tcymUydH-126" vertex="1" connectable="0"><mxGeometry x="0.5398" y="2" relative="1" as="geometry"><mxPoint as="offset"/></mxGeometry></mxCell><mxCell id="PSQ5HOjnmQE-tcymUydH-127" value="" style="endArrow=classic;html=1;rounded=0;exitX=1;exitY=0.5;exitDx=0;exitDy=0;entryX=-0.013;entryY=0.062;entryDx=0;entryDy=0;entryPerimeter=0;" parent="WIyWlLk6GJQsqaUBKTNV-1" source="HzYEAX8HfGSruy279Z3v-53" target="HzYEAX8HfGSruy279Z3v-122" edge="1"><mxGeometry width="50" height="50" relative="1" as="geometry"><mxPoint x="680" y="-301" as="sourcePoint"/><mxPoint x="801" y="-618" as="targetPoint"/></mxGeometry></mxCell><mxCell id="PSQ5HOjnmQE-tcymUydH-129" value="" style="endArrow=classic;html=1;rounded=0;exitX=1;exitY=0.5;exitDx=0;exitDy=0;entryX=0;entryY=0.5;entryDx=0;entryDy=0;" parent="WIyWlLk6GJQsqaUBKTNV-1" source="HzYEAX8HfGSruy279Z3v-53" target="PSQ5HOjnmQE-tcymUydH-82" edge="1"><mxGeometry width="50" height="50" relative="1" as="geometry"><mxPoint x="680" y="-291" as="sourcePoint"/><mxPoint x="797" y="-314" as="targetPoint"/></mxGeometry></mxCell><mxCell id="PSQ5HOjnmQE-tcymUydH-130" value="" style="endArrow=classic;html=1;rounded=0;entryX=0.5;entryY=0;entryDx=0;entryDy=0;exitX=0.5;exitY=1;exitDx=0;exitDy=0;" parent="WIyWlLk6GJQsqaUBKTNV-1" source="PSQ5HOjnmQE-tcymUydH-7" target="PSQ5HOjnmQE-tcymUydH-28" edge="1"><mxGeometry width="50" height="50" relative="1" as="geometry"><mxPoint x="920" y="30" as="sourcePoint"/><mxPoint x="950" y="200" as="targetPoint"/></mxGeometry></mxCell><mxCell id="PSQ5HOjnmQE-tcymUydH-131" value="" style="endArrow=classic;html=1;rounded=0;entryX=0.5;entryY=0;entryDx=0;entryDy=0;exitX=0.5;exitY=1;exitDx=0;exitDy=0;" parent="WIyWlLk6GJQsqaUBKTNV-1" source="PSQ5HOjnmQE-tcymUydH-7" target="PSQ5HOjnmQE-tcymUydH-94" edge="1"><mxGeometry width="50" height="50" relative="1" as="geometry"><mxPoint x="890" y="30" as="sourcePoint"/><mxPoint x="420" y="220" as="targetPoint"/></mxGeometry></mxCell><mxCell id="PSQ5HOjnmQE-tcymUydH-132" value="" style="endArrow=classic;html=1;rounded=0;entryX=0.5;entryY=0;entryDx=0;entryDy=0;exitX=0.5;exitY=1;exitDx=0;exitDy=0;" parent="WIyWlLk6GJQsqaUBKTNV-1" source="PSQ5HOjnmQE-tcymUydH-7" target="PSQ5HOjnmQE-tcymUydH-99" edge="1"><mxGeometry width="50" height="50" relative="1" as="geometry"><mxPoint x="890" y="30" as="sourcePoint"/><mxPoint x="660" y="220" as="targetPoint"/></mxGeometry></mxCell><mxCell id="PSQ5HOjnmQE-tcymUydH-133" value="" style="endArrow=classic;html=1;rounded=0;entryX=0.5;entryY=0;entryDx=0;entryDy=0;exitX=0.5;exitY=1;exitDx=0;exitDy=0;" parent="WIyWlLk6GJQsqaUBKTNV-1" source="PSQ5HOjnmQE-tcymUydH-7" target="PSQ5HOjnmQE-tcymUydH-89" edge="1"><mxGeometry width="50" height="50" relative="1" as="geometry"><mxPoint x="890" y="30" as="sourcePoint"/><mxPoint x="660" y="220" as="targetPoint"/></mxGeometry></mxCell><mxCell id="PSQ5HOjnmQE-tcymUydH-134" value="" style="endArrow=classic;html=1;rounded=0;entryX=0.5;entryY=0;entryDx=0;entryDy=0;exitX=0.5;exitY=1;exitDx=0;exitDy=0;" parent="WIyWlLk6GJQsqaUBKTNV-1" source="PSQ5HOjnmQE-tcymUydH-7" target="PSQ5HOjnmQE-tcymUydH-104" edge="1"><mxGeometry width="50" height="50" relative="1" as="geometry"><mxPoint x="910" y="30" as="sourcePoint"/><mxPoint x="670" y="230" as="targetPoint"/></mxGeometry></mxCell><mxCell id="PSQ5HOjnmQE-tcymUydH-135" value="" style="endArrow=classic;html=1;rounded=0;entryX=0.003;entryY=0;entryDx=0;entryDy=0;entryPerimeter=0;exitX=1;exitY=0.5;exitDx=0;exitDy=0;" parent="WIyWlLk6GJQsqaUBKTNV-1" source="HzYEAX8HfGSruy279Z3v-71" target="PSQ5HOjnmQE-tcymUydH-117" edge="1"><mxGeometry width="50" height="50" relative="1" as="geometry"><mxPoint x="959.6199999999999" y="-616" as="sourcePoint"/><mxPoint x="919.6199999999999" y="-646" as="targetPoint"/></mxGeometry></mxCell><mxCell id="xrnd4R6Ddu3Z8AAsykW7-0" value="Usuario" style="swimlane;fontStyle=0;align=center;verticalAlign=top;childLayout=stackLayout;horizontal=1;startSize=26;horizontalStack=0;resizeParent=1;resizeLast=0;collapsible=1;marginBottom=0;rounded=0;shadow=0;strokeWidth=1;" parent="WIyWlLk6GJQsqaUBKTNV-1" vertex="1"><mxGeometry x="420" y="-800" width="200" height="290" as="geometry"><mxRectangle x="130" y="380" width="160" height="26" as="alternateBounds"/></mxGeometry></mxCell><mxCell id="xrnd4R6Ddu3Z8AAsykW7-1" value="id_usuario: INT&#10;" style="text;align=left;verticalAlign=top;spacingLeft=4;spacingRight=4;overflow=hidden;rotatable=0;points=[[0,0.5],[1,0.5]];portConstraint=eastwest;" parent="xrnd4R6Ddu3Z8AAsykW7-0" vertex="1"><mxGeometry y="26" width="200" height="26" as="geometry"/></mxCell><mxCell id="xrnd4R6Ddu3Z8AAsykW7-2" value="id_vehiculo: ARRAY INT" style="text;align=left;verticalAlign=top;spacingLeft=4;spacingRight=4;overflow=hidden;rotatable=0;points=[[0,0.5],[1,0.5]];portConstraint=eastwest;" parent="xrnd4R6Ddu3Z8AAsykW7-0" vertex="1"><mxGeometry y="52" width="200" height="26" as="geometry"/></mxCell><mxCell id="xrnd4R6Ddu3Z8AAsykW7-11" value="fechaAlta: DATETIME" style="text;align=left;verticalAlign=top;spacingLeft=4;spacingRight=4;overflow=hidden;rotatable=0;points=[[0,0.5],[1,0.5]];portConstraint=eastwest;" parent="xrnd4R6Ddu3Z8AAsykW7-0" vertex="1"><mxGeometry y="78" width="200" height="26" as="geometry"/></mxCell><mxCell id="10" value="nombre: VARCHAR" style="text;align=left;verticalAlign=top;spacingLeft=4;spacingRight=4;overflow=hidden;rotatable=0;points=[[0,0.5],[1,0.5]];portConstraint=eastwest;" parent="xrnd4R6Ddu3Z8AAsykW7-0" vertex="1"><mxGeometry y="104" width="200" height="26" as="geometry"/></mxCell><mxCell id="xrnd4R6Ddu3Z8AAsykW7-3" value="apellido: VARCHAR" style="text;align=left;verticalAlign=top;spacingLeft=4;spacingRight=4;overflow=hidden;rotatable=0;points=[[0,0.5],[1,0.5]];portConstraint=eastwest;" parent="xrnd4R6Ddu3Z8AAsykW7-0" vertex="1"><mxGeometry y="130" width="200" height="26" as="geometry"/></mxCell><mxCell id="9" value="email: VARCHAR" style="text;align=left;verticalAlign=top;spacingLeft=4;spacingRight=4;overflow=hidden;rotatable=0;points=[[0,0.5],[1,0.5]];portConstraint=eastwest;" parent="xrnd4R6Ddu3Z8AAsykW7-0" vertex="1"><mxGeometry y="156" width="200" height="26" as="geometry"/></mxCell><mxCell id="11" value="password: VARCHAR" style="text;align=left;verticalAlign=top;spacingLeft=4;spacingRight=4;overflow=hidden;rotatable=0;points=[[0,0.5],[1,0.5]];portConstraint=eastwest;" parent="xrnd4R6Ddu3Z8AAsykW7-0" vertex="1"><mxGeometry y="182" width="200" height="26" as="geometry"/></mxCell><mxCell id="xrnd4R6Ddu3Z8AAsykW7-4" value="fechaAlta: DATETIME" style="text;align=left;verticalAlign=top;spacingLeft=4;spacingRight=4;overflow=hidden;rotatable=0;points=[[0,0.5],[1,0.5]];portConstraint=eastwest;" parent="xrnd4R6Ddu3Z8AAsykW7-0" vertex="1"><mxGeometry y="208" width="200" height="26" as="geometry"/></mxCell><mxCell id="xrnd4R6Ddu3Z8AAsykW7-9" value="estado: VARCHAR" style="text;align=left;verticalAlign=top;spacingLeft=4;spacingRight=4;overflow=hidden;rotatable=0;points=[[0,0.5],[1,0.5]];portConstraint=eastwest;" parent="xrnd4R6Ddu3Z8AAsykW7-0" vertex="1"><mxGeometry y="234" width="200" height="26" as="geometry"/></mxCell><mxCell id="xrnd4R6Ddu3Z8AAsykW7-7" value="" style="line;html=1;strokeWidth=1;align=left;verticalAlign=middle;spacingTop=-1;spacingLeft=3;spacingRight=3;rotatable=0;labelPosition=right;points=[];portConstraint=eastwest;" parent="xrnd4R6Ddu3Z8AAsykW7-0" vertex="1"><mxGeometry y="260" width="200" height="2" as="geometry"/></mxCell><mxCell id="xrnd4R6Ddu3Z8AAsykW7-8" value="metodo" style="text;align=left;verticalAlign=top;spacingLeft=4;spacingRight=4;overflow=hidden;rotatable=0;points=[[0,0.5],[1,0.5]];portConstraint=eastwest;" parent="xrnd4R6Ddu3Z8AAsykW7-0" vertex="1"><mxGeometry y="262" width="200" height="26" as="geometry"/></mxCell><mxCell id="xrnd4R6Ddu3Z8AAsykW7-10" value="" style="endArrow=classic;html=1;rounded=0;entryX=0.5;entryY=0;entryDx=0;entryDy=0;" parent="WIyWlLk6GJQsqaUBKTNV-1" target="HzYEAX8HfGSruy279Z3v-21" edge="1"><mxGeometry width="50" height="50" relative="1" as="geometry"><mxPoint x="520" y="-510" as="sourcePoint"/><mxPoint x="751.28" y="-617.604" as="targetPoint"/></mxGeometry></mxCell></root></mxGraphModel></diagram></mxfile>